<svg width="111" height="111" viewBox="0 0 111 111" fill="none" xmlns="http://www.w3.org/2000/svg">
<circle cx="55.5" cy="55.5" r="55.5" fill="white"/>
<path d="M39.325 31.3929L51.3999 37.898V77.6939L39.325 70.8061V31.3929Z" fill="#21243D"/>
<path d="M35.4917 73.8672L41.8166 80.6974V92.8085L33 80.6974L35.4917 73.8672Z" fill="#21243D"/>
<path d="M67.1165 41.9159L74.7831 37.1328V61.6225L67.1165 57.0307V41.9159Z" fill="#21243D"/>
<path d="M54.8499 52.0562L78.9998 68.1276L72.0998 74.2501L54.8499 64.6838V52.0562Z" fill="#21243D"/>
<path d="M47.5667 18L74.5916 34.4541L65.7749 40.7678L47.5667 30.6275V18Z" fill="#21243D"/>
<path d="M44.5 81.2179L73.6332 72.3367L78.9999 79.9897L44.5 92.9999V81.2179Z" fill="#21243D"/>
<path d="M69.0332 74.1253L78.9998 68.1275V79.9897L69.0332 74.1253Z" fill="#21243D"/>
</svg>
