<svg width="145" height="145" viewBox="0 0 145 145" fill="none" xmlns="http://www.w3.org/2000/svg">
<rect width="145" height="145" fill="#F56C6C"/>
<path d="M118.146 95.9477C118.138 95.9502 118.138 95.9464 118.132 95.9531C117.945 96.1715 97.1775 120.306 72.2131 119.983C49.3758 119.688 38.1276 108.674 37.1312 107.651C37.0769 107.595 37.0325 107.545 36.9807 107.487C31.333 101.153 34.0082 96.1682 42.4628 96.9006C52.4994 97.7701 65.5975 98.7457 77.8272 99.8031C96.2361 101.395 112.2 97.6216 118.154 95.9457C118.212 95.9295 118.204 95.9303 118.146 95.9477Z" fill="#FBFBFB"/>
<path d="M26.9218 105.343C26.9242 105.335 26.9274 105.337 26.925 105.329C26.8436 105.052 17.8848 74.4991 31.7329 53.7252C44.401 34.7214 59.7613 31.2723 61.162 30.9927C61.2383 30.9775 61.3038 30.9671 61.3807 30.9552C69.7677 29.6606 72.4961 34.6168 67.2834 41.3134C61.0952 49.263 53.153 59.7239 45.6144 69.4117C34.2669 83.9944 28.7513 99.4426 26.9193 105.351C26.9015 105.408 26.9052 105.401 26.9218 105.343Z" fill="#FBFBFB"/>
<path d="M65.5502 24.0322C65.5569 24.0378 65.5537 24.0399 65.5624 24.041C65.8477 24.079 97.4039 28.3185 110.752 49.4174C122.962 68.7185 119.867 84.1541 119.553 85.5474C119.536 85.6233 119.519 85.6874 119.498 85.7625C117.27 93.9512 111.633 94.4285 107.635 86.9431C102.888 78.057 96.5611 66.5473 90.7758 55.7207C82.0675 39.4239 70.1971 28.1031 65.5443 24.0268C65.4992 23.9873 65.5043 23.9935 65.5502 24.0322Z" fill="#FBFBFB"/>
</svg>
