<svg width="80" height="80" viewBox="0 0 80 80" fill="none" xmlns="http://www.w3.org/2000/svg">
<rect width="79.2731" height="79.2731" rx="22" fill="#FF4A00"/>
<path fill-rule="evenodd" clip-rule="evenodd" d="M39.4961 33.8864L45.3872 39.7775L39.778 45.3867L33.8869 39.4956L39.4961 33.8864ZM33.4561 27.8463L29.7626 24.1528C29.5519 23.9421 29.5519 23.6006 29.7626 23.3899L35.0397 18.1128C35.2503 17.9021 35.5919 17.9021 35.8026 18.1128L53.8433 36.1534C55.8448 38.1549 55.8448 41.4 53.8433 43.4015L45.818 51.4267L49.5115 55.1202C49.7222 55.3309 49.7222 55.6725 49.5115 55.8832L44.2344 61.1603C44.0237 61.371 43.6821 61.371 43.4715 61.1603L25.4308 43.1196C23.4293 41.1181 23.4293 37.8731 25.4308 35.8716L33.4561 27.8463Z" fill="white"/>
</svg>
